<svg width="174" height="174" viewBox="0 0 174 174" fill="none" xmlns="http://www.w3.org/2000/svg">
<path d="M45.1246 148.623C45.1294 148.634 45.137 148.642 45.1474 148.649C46.9067 149.797 48.7212 150.988 50.5849 151.958C50.895 152.119 51.1701 152.367 51.4994 152.476C51.6019 152.51 51.7017 152.553 51.7986 152.604C53.6684 153.608 55.5798 154.524 57.5329 155.351C57.9571 155.53 58.6529 155.784 59.2008 156.04C59.6767 156.262 60.221 156.374 60.7365 156.613C61.2452 156.849 61.8076 157.051 62.4237 157.219C63.0605 157.393 63.6842 157.714 64.2538 157.875C65.5059 158.227 66.7797 158.555 68.0018 158.98C68.2529 159.067 68.5665 159.045 68.7696 159.096C69.1245 159.184 69.4782 159.276 69.8307 159.372C70.6334 159.593 71.4818 159.673 72.3073 159.874C73.5462 160.177 74.6974 160.301 75.9171 160.471C90.1928 162.457 103.894 160.573 117.02 154.818C117.536 154.591 118.042 154.341 118.537 154.068C118.692 153.983 118.872 153.973 119.001 153.909C119.476 153.675 119.979 153.364 120.627 153.077C120.834 152.985 121.034 152.88 121.227 152.762C121.95 152.317 122.738 151.962 123.476 151.535C147.167 137.873 161.481 113.1 161.188 85.6841C160.74 43.6297 125.082 10.2561 83.1018 12.2581C39.4408 14.3405 6.73045 53.5867 12.8036 96.9965C15.7369 117.965 27.4554 136.739 45.0874 148.574C45.0978 148.581 45.1102 148.598 45.1246 148.623Z" stroke="#5F5F5F" stroke-width="2"/>
<path d="M147.893 86.708C147.893 70.4645 141.44 54.8863 129.954 43.4005C118.468 31.9146 102.89 25.4619 86.6467 25.4619C70.4032 25.4619 54.8251 31.9146 43.3392 43.4005C31.8533 54.8863 25.4006 70.4645 25.4006 86.708C25.4006 102.951 31.8533 118.53 43.3392 130.015C54.8251 141.501 70.4032 147.954 86.6467 147.954C102.89 147.954 118.468 141.501 129.954 130.015C141.44 118.53 147.893 102.951 147.893 86.708Z" stroke="#2F2F2F" stroke-width="2"/>
<path d="M46.6543 96.2527C46.5834 99.955 46.9319 104.86 51.2963 106.136C52.3137 106.434 53.1497 106.587 53.8042 106.595C63.5672 106.717 73.3475 106.731 83.145 106.637C83.3878 106.635 83.5268 106.754 83.562 106.994C84.73 115.031 90.1699 121.807 97.8954 124.518C108.743 128.324 120.627 122.801 124.905 112.286C126.69 107.9 127.018 103.383 125.889 98.7329C124.007 90.9811 117.818 85.2311 110.19 83.1583C109.371 82.9356 108.55 82.7108 107.727 82.4841C107.71 82.4792 107.694 82.4693 107.682 82.4558C107.67 82.4424 107.662 82.4259 107.66 82.4084C107.645 82.2923 107.638 82.0904 107.641 81.8028C107.66 79.182 107.577 74.4703 107.628 69.5243C107.656 66.7396 107.641 63.9558 107.582 61.1727C107.511 57.9054 106.618 54.9662 103.454 53.505C102.315 52.9794 101.146 52.7159 99.9478 52.7143C97.1536 52.7119 94.3517 52.6738 91.5422 52.6001C91.39 52.5961 91.3159 52.518 91.3199 52.3658C91.3788 50.1043 91.1349 47.0232 87.8928 47.7598C86.7428 48.0218 86.2958 48.9783 86.1612 50.049C86.0635 50.8253 85.9886 51.6043 85.9365 52.3862C85.9341 52.4235 85.9176 52.4585 85.8904 52.4842C85.8632 52.5098 85.8273 52.5242 85.7899 52.5244C80.1076 52.5548 74.4226 52.5837 68.7348 52.6109C68.2168 52.6133 68.1123 52.379 68.1039 51.8959C68.075 50.234 68.063 47.8932 65.8748 47.6252C62.8046 47.2491 62.6664 50.3374 62.7145 52.4547C62.7149 52.4735 62.7117 52.4922 62.705 52.5097C62.6982 52.5272 62.6881 52.5433 62.6751 52.5569C62.6622 52.5705 62.6467 52.5814 62.6295 52.5891C62.6123 52.5967 62.5938 52.6008 62.5751 52.6013C62.3836 52.6053 62.1745 52.5985 61.9478 52.5809C59.8032 52.4159 57.6575 52.3682 55.5105 52.4379C52.1411 52.546 48.4892 53.6107 47.2143 57.0258C46.7468 58.2767 46.7084 59.5409 46.6976 60.954C46.6046 72.8761 46.5986 82.4469 46.6795 89.6664C46.7044 91.8623 46.696 94.0577 46.6543 96.2527Z" stroke="#8F8F8F" stroke-width="2"/>
<path d="M95.2854 68.7095C97.5049 68.7143 99.8121 68.7528 102.08 68.7252C102.281 68.7228 102.378 68.621 102.372 68.4199C102.295 65.7835 102.269 63.1427 102.295 60.4974C102.301 59.7572 102.246 59.2457 102.13 58.9629C101.615 57.7108 100.014 57.7841 98.7162 57.7444C96.393 57.6739 94.0341 57.6751 91.6396 57.748C91.4033 57.7552 91.2875 57.877 91.2923 58.1133C91.3175 59.2297 91.4041 60.4914 90.8117 61.514C90.2325 62.5138 89.334 62.9332 88.1163 62.7721C86.0098 62.4946 86.0831 59.3859 86.0014 57.867C85.9989 57.8134 85.9764 57.7628 85.9385 57.7258C85.9007 57.6889 85.8505 57.6684 85.7983 57.6687L68.3214 57.7384C68.2688 57.7384 68.2184 57.759 68.1812 57.7958C68.144 57.8325 68.1232 57.8823 68.1232 57.9343C68.122 58.9328 68.1808 60.4806 67.7362 61.3758C66.9996 62.8611 64.845 63.415 63.665 62.0896C62.8623 61.186 62.7289 59.1083 62.7313 57.9295C62.7313 57.879 62.7118 57.8305 62.6767 57.7943C62.6417 57.7582 62.594 57.7373 62.5439 57.736C60.1297 57.6663 57.6555 57.5918 55.227 57.6843C54.2 57.7244 53.5711 57.7833 53.3404 57.861C52.2168 58.2407 51.9044 59.3991 51.8575 60.5034C51.7406 63.2264 51.7293 65.9509 51.8239 68.6771C51.8254 68.7182 51.843 68.7571 51.8729 68.7854C51.9028 68.8137 51.9426 68.8292 51.9837 68.8285C66.4132 68.6386 80.8535 68.6843 95.2854 68.7095Z" stroke="#8F8F8F" stroke-width="2"/>
<path d="M51.8478 99.5272C51.8563 100.669 52.6181 101.47 53.7741 101.465C63.6277 101.42 73.4456 101.433 83.2279 101.505C83.3914 101.507 83.4911 101.427 83.5271 101.267C83.8864 99.6341 84.2541 97.9061 84.8033 96.4341C87.5671 89.0187 94.3108 84.0462 101.982 82.71C102.187 82.6747 102.29 82.5526 102.29 82.3435L102.287 74.2251C102.287 74.1712 102.268 74.1196 102.233 74.0815C102.199 74.0434 102.151 74.022 102.102 74.022C86.1051 74.0228 70.0686 74.0224 53.9928 74.0208C53.4461 74.0208 52.6205 73.9595 51.9452 74.004C51.9063 74.0067 51.8699 74.024 51.8434 74.0523C51.8168 74.0806 51.8021 74.1179 51.8022 74.1566C51.7701 82.7196 51.7854 91.1765 51.8478 99.5272Z" stroke="#8F8F8F" stroke-width="2"/>
<path d="M111.814 89.2183C111.656 89.0901 111.476 89.0132 111.273 88.9875" stroke="#BFBFBF" stroke-width="2"/>
<path d="M111.274 88.9874C110.513 88.6954 109.821 88.3962 109.002 88.24C108.327 88.1114 107.613 87.9372 106.978 87.8615C101.082 87.1585 95.2014 89.688 91.725 94.5211C84.4357 104.653 90.5846 118.95 102.998 120.468C109.184 121.226 115.252 118.442 118.706 113.244C124.272 104.87 121.033 93.4264 111.814 89.2182" stroke="#8F8F8F" stroke-width="2"/>
<path d="M111.273 88.9875C111.435 89.1069 111.616 89.1838 111.814 89.2183" stroke="#4E4E4E" stroke-width="2"/>
<path d="M107.78 101.497C107.758 101.498 107.736 101.494 107.716 101.486C107.695 101.479 107.676 101.467 107.66 101.451C107.645 101.436 107.632 101.418 107.623 101.397C107.615 101.377 107.611 101.355 107.611 101.333C107.615 99.6318 107.613 97.9466 107.605 96.2779C107.598 94.7963 107.086 93.4685 105.656 92.8304C104.073 92.125 102.5 93.4384 102.446 95.0306C102.373 97.2056 102.378 100.329 102.462 104.401C102.474 104.966 102.665 105.438 103.035 105.818C103.722 106.521 104.937 106.634 105.925 106.641C107.84 106.655 109.756 106.652 111.671 106.634C112.664 106.624 113.635 106.442 114.288 105.693C114.94 104.948 114.979 103.765 114.495 102.927C113.904 101.902 112.846 101.494 111.671 101.467C110.33 101.435 109.033 101.445 107.78 101.497Z" stroke="#8F8F8F" stroke-width="2"/>
<path d="M171.534 86.7405C171.534 97.8802 169.34 108.911 165.077 119.203C160.814 129.494 154.566 138.846 146.689 146.723C138.812 154.599 129.461 160.848 119.169 165.111C108.877 169.374 97.8465 171.568 86.7068 171.568C64.2092 171.568 42.633 162.631 26.7248 146.723C10.8165 130.814 1.87939 109.238 1.87939 86.7405C1.87939 64.2429 10.8165 42.6667 26.7248 26.7585C42.633 10.8502 64.2092 1.91309 86.7068 1.91309C97.8465 1.91309 108.877 4.10721 119.169 8.37019C129.461 12.6332 138.812 18.8815 146.689 26.7585C154.566 34.6354 160.814 43.9867 165.077 54.2784C169.34 64.5702 171.534 75.6008 171.534 86.7405ZM45.1246 148.623C45.1294 148.634 45.1371 148.642 45.1475 148.649C46.9067 149.797 48.7212 150.988 50.585 151.958C50.895 152.119 51.1702 152.367 51.4994 152.476C51.602 152.51 51.7017 152.553 51.7986 152.605C53.6684 153.608 55.5799 154.524 57.533 155.352C57.9571 155.531 58.6529 155.784 59.2009 156.04C59.6767 156.262 60.2211 156.374 60.7366 156.613C61.2453 156.849 61.8076 157.051 62.4237 157.219C63.0606 157.393 63.6842 157.714 64.2538 157.875C65.506 158.227 66.7797 158.555 68.0018 158.981C68.2529 159.067 68.5666 159.045 68.7697 159.096C69.1245 159.184 69.4782 159.276 69.8307 159.372C70.6334 159.593 71.4818 159.673 72.3073 159.875C73.5462 160.177 74.6974 160.301 75.9171 160.471C90.1928 162.457 103.894 160.573 117.02 154.818C117.537 154.591 118.042 154.341 118.537 154.068C118.693 153.983 118.872 153.973 119.001 153.91C119.476 153.675 119.979 153.364 120.627 153.077C120.834 152.985 121.034 152.881 121.227 152.762C121.95 152.317 122.738 151.962 123.476 151.535C147.167 137.873 161.481 113.1 161.188 85.6842C160.74 43.6298 125.082 10.2562 83.1018 12.2582C39.4408 14.3406 6.73049 53.5868 12.8037 96.9966C15.7369 117.966 27.4555 136.739 45.0874 148.574C45.0978 148.581 45.1102 148.598 45.1246 148.623Z" fill="#CD672E" fill-opacity="0.47"/>
<path d="M45.0874 148.574C27.4554 136.739 15.7369 117.965 12.8036 96.9965C6.73045 53.5867 39.4408 14.3405 83.1018 12.2581C125.082 10.2561 160.74 43.6297 161.188 85.6841C161.481 113.1 147.167 137.873 123.476 151.535C122.738 151.962 121.95 152.317 121.227 152.762C121.034 152.88 120.834 152.985 120.627 153.077C119.979 153.364 119.476 153.675 119.001 153.909C118.872 153.973 118.692 153.983 118.537 154.068C118.042 154.341 117.537 154.591 117.02 154.818C103.894 160.573 90.1928 162.457 75.9171 160.47C74.6974 160.301 73.5462 160.177 72.3073 159.874C71.4818 159.673 70.6334 159.593 69.8307 159.372C69.4782 159.276 69.1245 159.184 68.7696 159.096C68.5665 159.045 68.2529 159.067 68.0018 158.98C66.7797 158.555 65.5059 158.227 64.2538 157.875C63.6842 157.714 63.0605 157.393 62.4237 157.219C61.8076 157.051 61.2452 156.849 60.7365 156.613C60.221 156.374 59.6767 156.262 59.2008 156.04C58.6529 155.784 57.9571 155.53 57.5329 155.351C55.5798 154.524 53.6684 153.608 51.7986 152.604C51.7017 152.553 51.6019 152.51 51.4994 152.476C51.1702 152.367 50.895 152.119 50.5849 151.958C48.7212 150.988 46.9067 149.797 45.1474 148.649C45.137 148.642 45.1294 148.634 45.1246 148.623C45.1102 148.598 45.0978 148.581 45.0874 148.574ZM147.893 86.7079C147.893 70.4645 141.44 54.8863 129.954 43.4004C118.468 31.9146 102.89 25.4619 86.6467 25.4619C70.4032 25.4619 54.825 31.9146 43.3392 43.4004C31.8533 54.8863 25.4006 70.4645 25.4006 86.7079C25.4006 102.951 31.8533 118.53 43.3392 130.015C54.825 141.501 70.4032 147.954 86.6467 147.954C102.89 147.954 118.468 141.501 129.954 130.015C141.44 118.53 147.893 102.951 147.893 86.7079Z" fill="#CD672E" fill-opacity="0.76"/>
<path d="M147.893 86.708C147.893 102.951 141.44 118.53 129.954 130.015C118.468 141.501 102.89 147.954 86.6467 147.954C70.4032 147.954 54.8251 141.501 43.3392 130.015C31.8533 118.53 25.4006 102.951 25.4006 86.708C25.4006 70.4645 31.8533 54.8863 43.3392 43.4005C54.8251 31.9146 70.4032 25.4619 86.6467 25.4619C102.89 25.4619 118.468 31.9146 129.954 43.4005C141.44 54.8863 147.893 70.4645 147.893 86.708ZM46.6543 96.2528C46.5835 99.9551 46.9319 104.86 51.2964 106.136C52.3138 106.434 53.1497 106.587 53.8042 106.595C63.5673 106.717 73.3476 106.731 83.1451 106.637C83.3878 106.635 83.5268 106.754 83.5621 106.994C84.7301 115.031 90.17 121.807 97.8954 124.518C108.743 128.324 120.627 122.801 124.905 112.286C126.69 107.9 127.018 103.383 125.889 98.733C124.007 90.9811 117.818 85.2312 110.19 83.1583C109.371 82.9356 108.55 82.7109 107.727 82.4842C107.71 82.4792 107.694 82.4693 107.682 82.4559C107.67 82.4424 107.662 82.4259 107.66 82.4085C107.645 82.2923 107.638 82.0904 107.641 81.8028C107.66 79.182 107.577 74.4703 107.628 69.5243C107.656 66.7396 107.641 63.9558 107.582 61.1728C107.511 57.9055 106.618 54.9662 103.454 53.505C102.315 52.9795 101.146 52.7159 99.9479 52.7143C97.1536 52.7119 94.3517 52.6738 91.5423 52.6001C91.3901 52.5961 91.316 52.518 91.32 52.3658C91.3788 50.1043 91.1349 47.0233 87.8928 47.7599C86.7428 48.0218 86.2958 48.9784 86.1612 50.049C86.0635 50.8253 85.9886 51.6044 85.9365 52.3863C85.9341 52.4236 85.9176 52.4586 85.8904 52.4842C85.8632 52.5098 85.8273 52.5242 85.7899 52.5244C80.1077 52.5549 74.4226 52.5837 68.7348 52.611C68.2169 52.6134 68.1123 52.379 68.1039 51.896C68.0751 50.2341 68.0631 47.8933 65.8749 47.6253C62.8046 47.2492 62.6664 50.3374 62.7145 52.4547C62.715 52.4735 62.7118 52.4922 62.705 52.5097C62.6983 52.5273 62.6881 52.5433 62.6752 52.5569C62.6622 52.5705 62.6467 52.5815 62.6296 52.5891C62.6124 52.5967 62.5939 52.6009 62.5751 52.6013C62.3836 52.6054 62.1746 52.5985 61.9478 52.5809C59.8033 52.4159 57.6575 52.3682 55.5106 52.4379C52.1411 52.5461 48.4893 53.6107 47.2143 57.0258C46.7469 58.2768 46.7084 59.5409 46.6976 60.9541C46.6047 72.8761 46.5987 82.4469 46.6796 89.6665C46.7044 91.8623 46.696 94.0577 46.6543 96.2528Z" fill="#CD672E"/>
<path d="M51.2963 106.136C46.9319 104.86 46.5834 99.955 46.6543 96.2527C46.696 94.0577 46.7044 91.8623 46.6795 89.6664C46.5986 82.4469 46.6046 72.8761 46.6976 60.954C46.7084 59.5409 46.7468 58.2767 47.2143 57.0258C48.4892 53.6107 52.1411 52.546 55.5105 52.4379C57.6575 52.3682 59.8032 52.4159 61.9478 52.5809C62.1745 52.5985 62.3836 52.6053 62.5751 52.6013C62.5938 52.6008 62.6123 52.5967 62.6295 52.5891C62.6467 52.5814 62.6622 52.5705 62.6751 52.5569C62.6881 52.5433 62.6982 52.5272 62.705 52.5097C62.7117 52.4922 62.7149 52.4735 62.7145 52.4547C62.6664 50.3374 62.8046 47.2491 65.8748 47.6252C68.063 47.8932 68.075 50.234 68.1039 51.8959C68.1123 52.379 68.2168 52.6133 68.7348 52.6109C74.4226 52.5837 80.1076 52.5548 85.7899 52.5244C85.8273 52.5242 85.8632 52.5098 85.8904 52.4842C85.9176 52.4585 85.9341 52.4235 85.9365 52.3862C85.9886 51.6043 86.0635 50.8253 86.1612 50.049C86.2958 48.9783 86.7428 48.0218 87.8928 47.7598C91.1349 47.0232 91.3788 50.1043 91.3199 52.3658C91.3159 52.518 91.39 52.5961 91.5422 52.6001C94.3517 52.6738 97.1536 52.7119 99.9478 52.7143C101.146 52.7159 102.315 52.9794 103.454 53.505C106.618 54.9662 107.511 57.9054 107.582 61.1727C107.641 63.9558 107.656 66.7396 107.628 69.5243C107.577 74.4703 107.66 79.182 107.641 81.8028C107.638 82.0904 107.645 82.2923 107.66 82.4084C107.662 82.4259 107.67 82.4424 107.682 82.4558C107.694 82.4693 107.71 82.4792 107.727 82.4841C108.55 82.7108 109.371 82.9356 110.19 83.1583C117.818 85.2311 124.007 90.9811 125.889 98.7329C127.018 103.383 126.69 107.9 124.905 112.286C120.627 122.801 108.743 128.324 97.8954 124.518C90.1699 121.807 84.73 115.031 83.562 106.994C83.5268 106.754 83.3878 106.635 83.145 106.637C73.3475 106.731 63.5672 106.717 53.8042 106.595C53.1497 106.587 52.3137 106.434 51.2963 106.136ZM95.2854 68.7095C97.5048 68.7143 99.812 68.7528 102.08 68.7251C102.281 68.7227 102.378 68.621 102.372 68.4199C102.295 65.7835 102.269 63.1427 102.295 60.4974C102.301 59.7572 102.246 59.2457 102.13 58.9629C101.615 57.7108 100.014 57.7841 98.7161 57.7444C96.3929 57.6739 94.0341 57.6751 91.6395 57.748C91.4032 57.7552 91.2875 57.877 91.2923 58.1133C91.3175 59.2297 91.404 60.4914 90.8116 61.514C90.2324 62.5138 89.334 62.9332 88.1163 62.7721C86.0098 62.4946 86.0831 59.3859 86.0014 57.867C85.9989 57.8134 85.9763 57.7628 85.9385 57.7258C85.9006 57.6889 85.8504 57.6684 85.7983 57.6687L68.3214 57.7384C68.2688 57.7384 68.2184 57.759 68.1812 57.7958C68.144 57.8325 68.1231 57.8823 68.1231 57.9343C68.1219 58.9328 68.1808 60.4806 67.7362 61.3758C66.9996 62.8611 64.845 63.415 63.665 62.0896C62.8623 61.186 62.7289 59.1083 62.7313 57.9295C62.7313 57.879 62.7117 57.8305 62.6767 57.7943C62.6417 57.7582 62.594 57.7372 62.5438 57.736C60.1297 57.6663 57.6555 57.5918 55.2269 57.6843C54.1999 57.7244 53.571 57.7833 53.3403 57.861C52.2168 58.2407 51.9043 59.3991 51.8575 60.5034C51.7405 63.2264 51.7293 65.9509 51.8238 68.6771C51.8254 68.7182 51.843 68.7571 51.8729 68.7854C51.9027 68.8137 51.9425 68.8292 51.9837 68.8285C66.4132 68.6386 80.8535 68.6843 95.2854 68.7095ZM51.8479 99.5272C51.8563 100.669 52.6181 101.47 53.7741 101.466C63.6277 101.42 73.4457 101.433 83.2279 101.505C83.3914 101.507 83.4911 101.427 83.5272 101.267C83.8865 99.6342 84.2542 97.9062 84.8033 96.4342C87.5671 89.0187 94.3108 84.0463 101.982 82.71C102.187 82.6748 102.29 82.5526 102.29 82.3435L102.287 74.2251C102.287 74.1713 102.268 74.1196 102.233 74.0815C102.199 74.0435 102.151 74.0221 102.102 74.0221C86.1051 74.0229 70.0686 74.0225 53.9928 74.0209C53.4461 74.0209 52.6205 73.9596 51.9452 74.004C51.9063 74.0068 51.8699 74.024 51.8434 74.0524C51.8168 74.0807 51.8021 74.118 51.8022 74.1566C51.7702 82.7197 51.7854 91.1765 51.8479 99.5272ZM111.814 89.2182C111.656 89.09 111.476 89.0131 111.273 88.9875C110.513 88.6955 109.821 88.3963 109.002 88.2401C108.327 88.1115 107.613 87.9372 106.978 87.8615C101.082 87.1586 95.2013 89.6881 91.7249 94.5211C84.4356 104.654 90.5845 118.95 102.998 120.469C109.184 121.226 115.252 118.443 118.706 113.244C124.272 104.87 121.033 93.4264 111.814 89.2182Z" fill="white"/>
<path d="M95.2854 68.7095C80.8535 68.6843 66.4132 68.6386 51.9837 68.8285C51.9426 68.8292 51.9028 68.8137 51.8729 68.7854C51.843 68.7571 51.8254 68.7182 51.8239 68.6771C51.7293 65.9509 51.7406 63.2264 51.8575 60.5034C51.9044 59.3991 52.2168 58.2407 53.3404 57.861C53.5711 57.7833 54.2 57.7244 55.227 57.6843C57.6555 57.5918 60.1297 57.6663 62.5439 57.736C62.594 57.7373 62.6417 57.7582 62.6767 57.7943C62.7118 57.8305 62.7313 57.879 62.7313 57.9295C62.7289 59.1083 62.8623 61.186 63.665 62.0896C64.845 63.415 66.9996 62.8611 67.7362 61.3758C68.1808 60.4806 68.122 58.9328 68.1232 57.9343C68.1232 57.8823 68.144 57.8325 68.1812 57.7958C68.2184 57.759 68.2688 57.7384 68.3214 57.7384L85.7983 57.6687C85.8505 57.6684 85.9007 57.6889 85.9385 57.7258C85.9764 57.7628 85.9989 57.8134 86.0014 57.867C86.0831 59.3859 86.0098 62.4946 88.1163 62.7721C89.334 62.9332 90.2325 62.5138 90.8117 61.514C91.4041 60.4914 91.3175 59.2297 91.2923 58.1133C91.2875 57.877 91.4033 57.7552 91.6396 57.748C94.0341 57.6751 96.393 57.6739 98.7162 57.7444C100.014 57.7841 101.615 57.7108 102.13 58.9629C102.246 59.2457 102.301 59.7572 102.295 60.4974C102.269 63.1427 102.295 65.7835 102.372 68.4199C102.378 68.621 102.281 68.7228 102.08 68.7252C99.8121 68.7528 97.5049 68.7143 95.2854 68.7095Z" fill="#CD672E"/>
<path d="M53.7741 101.466C52.6181 101.47 51.8563 100.669 51.8478 99.5273C51.7854 91.1766 51.7701 82.7197 51.8022 74.1567C51.8021 74.118 51.8168 74.0808 51.8434 74.0524C51.8699 74.0241 51.9063 74.0068 51.9452 74.0041C52.6205 73.9596 53.4461 74.0209 53.9928 74.0209C70.0686 74.0225 86.1051 74.0229 102.102 74.0221C102.151 74.0221 102.199 74.0435 102.233 74.0816C102.268 74.1197 102.287 74.1713 102.287 74.2252L102.29 82.3436C102.29 82.5527 102.187 82.6749 101.982 82.7101C94.3108 84.0463 87.5671 89.0188 84.8033 96.4342C84.2541 97.9063 83.8864 99.6342 83.5271 101.267C83.4911 101.428 83.3914 101.507 83.2279 101.505C73.4456 101.433 63.6277 101.42 53.7741 101.466Z" fill="#CD672E"/>
<path d="M111.274 88.9876C111.435 89.1069 111.616 89.1838 111.814 89.2183C121.033 93.4265 124.272 104.87 118.706 113.244C115.252 118.443 109.184 121.226 102.998 120.469C90.5846 118.95 84.4357 104.654 91.725 94.5212C95.2014 89.6881 101.082 87.1586 106.978 87.8616C107.613 87.9373 108.327 88.1116 109.002 88.2401C109.821 88.3963 110.513 88.6956 111.274 88.9876ZM107.78 101.497C107.758 101.498 107.736 101.494 107.716 101.486C107.695 101.479 107.676 101.467 107.66 101.452C107.645 101.436 107.632 101.418 107.624 101.398C107.615 101.377 107.611 101.355 107.611 101.333C107.615 99.6318 107.613 97.9467 107.605 96.278C107.598 94.7964 107.086 93.4685 105.656 92.8305C104.073 92.1251 102.5 93.4385 102.446 95.0307C102.373 97.2057 102.378 100.329 102.462 104.401C102.474 104.966 102.665 105.438 103.035 105.818C103.722 106.521 104.937 106.634 105.925 106.641C107.84 106.655 109.756 106.652 111.671 106.634C112.664 106.624 113.635 106.442 114.288 105.693C114.94 104.948 114.979 103.766 114.495 102.927C113.904 101.902 112.846 101.494 111.671 101.467C110.33 101.435 109.033 101.445 107.78 101.497Z" fill="#CD672E"/>
<path d="M111.273 88.9875C111.476 89.0132 111.656 89.0901 111.814 89.2183C111.616 89.1838 111.435 89.1069 111.273 88.9875Z" fill="#7E7E7E"/>
<path d="M107.78 101.497C109.033 101.445 110.33 101.435 111.671 101.467C112.846 101.494 113.904 101.902 114.495 102.927C114.979 103.766 114.94 104.948 114.288 105.693C113.635 106.442 112.664 106.624 111.671 106.634C109.756 106.652 107.84 106.655 105.925 106.641C104.937 106.634 103.722 106.521 103.035 105.818C102.665 105.438 102.474 104.966 102.462 104.401C102.378 100.329 102.373 97.2057 102.446 95.0307C102.5 93.4385 104.073 92.1251 105.656 92.8305C107.086 93.4686 107.598 94.7964 107.605 96.2781C107.613 97.9468 107.615 99.6319 107.611 101.333C107.611 101.355 107.615 101.377 107.623 101.398C107.632 101.418 107.645 101.436 107.66 101.452C107.676 101.467 107.695 101.479 107.716 101.487C107.736 101.494 107.758 101.498 107.78 101.497Z" fill="white"/>
</svg>
