<?xml version="1.0" encoding="UTF-8" standalone="no"?>
<!DOCTYPE svg PUBLIC "-//W3C//DTD SVG 1.1//EN" "http://www.w3.org/Graphics/SVG/1.1/DTD/svg11.dtd">
<svg xmlns="http://www.w3.org/2000/svg" version="1.1" viewBox="0 0 1448 1448">
<g stroke-width="2.00" fill="none" stroke-linecap="butt">
<path stroke="#5f5f5f" vector-effect="non-scaling-stroke" d="
  M 375.52 1236.82
  Q 375.58 1236.95 375.71 1237.03
  C 390.35 1246.59 405.45 1256.50 420.96 1264.57
  C 423.54 1265.91 425.83 1267.97 428.57 1268.88
  Q 429.85 1269.31 431.06 1269.95
  Q 454.40 1282.48 478.78 1292.81
  C 482.31 1294.30 488.10 1296.41 492.66 1298.54
  C 496.62 1300.39 501.15 1301.32 505.44 1303.31
  Q 511.79 1306.25 519.48 1308.35
  C 524.78 1309.80 529.97 1312.47 534.71 1313.81
  C 545.13 1316.74 555.73 1319.47 565.90 1323.01
  C 567.99 1323.73 570.60 1323.55 572.29 1323.97
  Q 576.72 1325.07 581.12 1326.27
  C 587.80 1328.11 594.86 1328.77 601.73 1330.45
  C 612.04 1332.97 621.62 1334.00 631.77 1335.41
  Q 809.97 1360.21 973.82 1288.37
  Q 980.27 1285.54 986.45 1282.13
  C 987.74 1281.42 989.23 1281.34 990.31 1280.81
  C 994.26 1278.86 998.45 1276.27 1003.84 1273.88
  Q 1006.42 1272.74 1008.83 1271.26
  C 1014.85 1267.56 1021.41 1264.60 1027.55 1261.05
  C 1224.70 1147.36 1343.82 941.20 1341.38 713.05
  C 1337.65 363.08 1040.91 85.35 691.56 102.01
  C 328.22 119.34 56.01 445.94 106.55 807.19
  C 130.96 981.69 228.48 1137.92 375.21 1236.41
  Q 375.34 1236.50 375.52 1236.82"
/>
<path stroke="#2f2f2f" vector-effect="non-scaling-stroke" d="
  M 1230.74 721.57
  A 509.68 509.68 0.0 0 0 721.06 211.89
  A 509.68 509.68 0.0 0 0 211.38 721.57
  A 509.68 509.68 0.0 0 0 721.06 1231.25
  A 509.68 509.68 0.0 0 0 1230.74 721.57"
/>
<path stroke="#8f8f8f" vector-effect="non-scaling-stroke" d="
  M 388.25 801.00
  C 387.66 831.81 390.56 872.63 426.88 883.25
  Q 439.58 886.96 447.75 887.07
  Q 569.62 888.59 691.92 887.42
  Q 694.95 887.39 695.39 890.39
  C 705.11 957.27 750.38 1013.66 814.67 1036.22
  C 904.94 1067.89 1003.84 1021.93 1039.44 934.43
  Q 1061.72 879.68 1047.63 821.64
  C 1031.97 757.13 980.46 709.28 916.98 692.03
  Q 906.76 689.25 896.49 686.42
  A 0.78 0.74 4.9 0 1 895.93 685.79
  Q 895.74 684.34 895.77 680.75
  C 895.93 658.94 895.24 619.73 895.66 578.57
  Q 896.02 543.81 895.28 509.07
  C 894.69 481.88 887.26 457.42 860.93 445.26
  Q 846.71 438.70 831.75 438.68
  Q 796.87 438.65 761.80 437.73
  Q 759.90 437.68 759.95 435.78
  C 760.44 416.96 758.41 391.32 731.43 397.45
  C 721.86 399.63 718.14 407.59 717.02 416.50
  Q 715.80 426.19 715.15 435.95
  A 1.23 1.23 1.5 0 1 713.93 437.10
  Q 643.00 437.48 572.00 437.82
  C 567.69 437.84 566.82 435.89 566.75 431.87
  C 566.51 418.04 566.41 398.56 548.20 396.33
  C 522.65 393.20 521.50 418.90 521.90 436.52
  A 1.19 1.19 88.9 0 1 520.74 437.74
  Q 518.35 437.79 515.52 437.57
  Q 488.75 435.51 461.95 436.38
  C 433.91 437.28 403.52 446.14 392.91 474.56
  C 389.02 484.97 388.70 495.49 388.61 507.25
  Q 387.45 656.07 388.46 746.19
  Q 388.77 773.60 388.25 801.00"
/>
<path stroke="#8f8f8f" vector-effect="non-scaling-stroke" d="
  M 792.95 571.79
  C 811.42 571.83 830.62 572.15 849.49 571.92
  Q 852.00 571.89 851.92 569.38
  Q 850.96 536.47 851.28 503.45
  Q 851.36 494.21 849.91 490.68
  C 845.62 480.26 832.30 480.87 821.50 480.54
  Q 792.50 479.66 762.61 480.57
  Q 759.66 480.66 759.72 483.61
  C 759.93 492.90 760.65 503.40 755.72 511.91
  Q 748.49 524.39 733.29 522.38
  C 715.76 520.07 716.37 494.20 715.69 481.56
  A 1.73 1.68 88.4 0 0 714.00 479.91
  L 568.56 480.49
  A 1.65 1.63 0.0 0 0 566.91 482.12
  C 566.90 490.43 567.39 503.31 563.69 510.76
  C 557.56 523.12 539.63 527.73 529.81 516.70
  C 523.13 509.18 522.02 491.89 522.04 482.08
  A 1.61 1.60 -89.3 0 0 520.48 480.47
  C 500.39 479.89 479.80 479.27 459.59 480.04
  Q 446.77 480.54 443.89 481.51
  C 434.54 484.67 431.94 494.31 431.55 503.50
  Q 430.09 537.49 431.27 571.52
  A 1.31 1.31 88.4 0 0 432.60 572.78
  C 552.68 571.20 672.85 571.58 792.95 571.79"
/>
<path stroke="#8f8f8f" vector-effect="non-scaling-stroke" d="
  M 431.47 828.25
  C 431.54 837.75 437.88 844.42 447.50 844.38
  Q 570.50 843.81 692.61 844.71
  Q 694.65 844.73 695.10 842.73
  C 698.09 829.14 701.15 814.76 705.72 802.51
  C 728.72 740.80 784.84 699.42 848.68 688.30
  Q 851.24 687.86 851.24 685.25
  L 851.22 617.69
  A 1.69 1.54 -90.0 0 0 849.68 616.00
  Q 649.99 616.01 449.32 615.99
  C 444.77 615.99 437.90 615.48 432.28 615.85
  A 1.28 1.27 -1.9 0 0 431.09 617.12
  Q 430.69 724.01 431.47 828.25"
/>
<path stroke="#bfbfbf" vector-effect="non-scaling-stroke" d="
  M 930.50 742.46
  Q 928.53 740.86 926.00 740.54"
/>
<path stroke="#8f8f8f" vector-effect="non-scaling-stroke" d="
  M 926.00 740.54
  C 919.67 738.11 913.91 735.62 907.10 734.32
  C 901.48 733.25 895.54 731.80 890.25 731.17
  C 841.19 725.32 792.25 746.37 763.32 786.59
  C 702.66 870.91 753.83 989.88 857.13 1002.52
  C 908.61 1008.82 959.11 985.66 987.85 942.40
  C 1034.17 872.71 1007.22 777.48 930.50 742.46"
/>
<path stroke="#4e4e4e" vector-effect="non-scaling-stroke" d="
  M 926.00 740.54
  Q 928.02 742.03 930.50 742.46"
/>
<path stroke="#8f8f8f" vector-effect="non-scaling-stroke" d="
  M 896.93 844.64
  A 1.35 1.35 -1.0 0 1 895.52 843.28
  Q 895.57 822.04 895.47 801.21
  C 895.41 788.88 891.15 777.83 879.25 772.52
  C 866.08 766.65 852.99 777.58 852.54 790.83
  Q 851.63 817.98 852.67 868.81
  Q 852.82 875.86 857.44 880.60
  C 863.16 886.45 873.27 887.39 881.49 887.45
  Q 905.40 887.62 929.31 887.39
  C 937.57 887.31 945.65 885.79 951.09 879.56
  C 956.51 873.36 956.84 863.52 952.81 856.54
  C 947.89 848.01 939.09 844.62 929.31 844.39
  Q 912.57 843.99 896.93 844.64"
/>
</g>
<path fill="#7e7e7e" d="
  M 1427.48 721.84
  A 705.92 705.92 0.0 0 1 721.56 1427.76
  A 705.92 705.92 0.0 0 1 15.64 721.84
  A 705.92 705.92 0.0 0 1 721.56 15.92
  A 705.92 705.92 0.0 0 1 1427.48 721.84
  Z
  M 375.52 1236.82
  Q 375.58 1236.95 375.71 1237.03
  C 390.35 1246.59 405.45 1256.50 420.96 1264.57
  C 423.54 1265.91 425.83 1267.97 428.57 1268.88
  Q 429.85 1269.31 431.06 1269.95
  Q 454.40 1282.48 478.78 1292.81
  C 482.31 1294.30 488.10 1296.41 492.66 1298.54
  C 496.62 1300.39 501.15 1301.32 505.44 1303.31
  Q 511.79 1306.25 519.48 1308.35
  C 524.78 1309.80 529.97 1312.47 534.71 1313.81
  C 545.13 1316.74 555.73 1319.47 565.90 1323.01
  C 567.99 1323.73 570.60 1323.55 572.29 1323.97
  Q 576.72 1325.07 581.12 1326.27
  C 587.80 1328.11 594.86 1328.77 601.73 1330.45
  C 612.04 1332.97 621.62 1334.00 631.77 1335.41
  Q 809.97 1360.21 973.82 1288.37
  Q 980.27 1285.54 986.45 1282.13
  C 987.74 1281.42 989.23 1281.34 990.31 1280.81
  C 994.26 1278.86 998.45 1276.27 1003.84 1273.88
  Q 1006.42 1272.74 1008.83 1271.26
  C 1014.85 1267.56 1021.41 1264.60 1027.55 1261.05
  C 1224.70 1147.36 1343.82 941.20 1341.38 713.05
  C 1337.65 363.08 1040.91 85.35 691.56 102.01
  C 328.22 119.34 56.01 445.94 106.55 807.19
  C 130.96 981.69 228.48 1137.92 375.21 1236.41
  Q 375.34 1236.50 375.52 1236.82
  Z"
/>
<path fill="#3f3f3f" d="
  M 375.21 1236.41
  C 228.48 1137.92 130.96 981.69 106.55 807.19
  C 56.01 445.94 328.22 119.34 691.56 102.01
  C 1040.91 85.35 1337.65 363.08 1341.38 713.05
  C 1343.82 941.20 1224.70 1147.36 1027.55 1261.05
  C 1021.41 1264.60 1014.85 1267.56 1008.83 1271.26
  Q 1006.42 1272.74 1003.84 1273.88
  C 998.45 1276.27 994.26 1278.86 990.31 1280.81
  C 989.23 1281.34 987.74 1281.42 986.45 1282.13
  Q 980.27 1285.54 973.82 1288.37
  Q 809.97 1360.21 631.77 1335.41
  C 621.62 1334.00 612.04 1332.97 601.73 1330.45
  C 594.86 1328.77 587.80 1328.11 581.12 1326.27
  Q 576.72 1325.07 572.29 1323.97
  C 570.60 1323.55 567.99 1323.73 565.90 1323.01
  C 555.73 1319.47 545.13 1316.74 534.71 1313.81
  C 529.97 1312.47 524.78 1309.80 519.48 1308.35
  Q 511.79 1306.25 505.44 1303.31
  C 501.15 1301.32 496.62 1300.39 492.66 1298.54
  C 488.10 1296.41 482.31 1294.30 478.78 1292.81
  Q 454.40 1282.48 431.06 1269.95
  Q 429.85 1269.31 428.57 1268.88
  C 425.83 1267.97 423.54 1265.91 420.96 1264.57
  C 405.45 1256.50 390.35 1246.59 375.71 1237.03
  Q 375.58 1236.95 375.52 1236.82
  Q 375.34 1236.50 375.21 1236.41
  Z
  M 1230.74 721.57
  A 509.68 509.68 0.0 0 0 721.06 211.89
  A 509.68 509.68 0.0 0 0 211.38 721.57
  A 509.68 509.68 0.0 0 0 721.06 1231.25
  A 509.68 509.68 0.0 0 0 1230.74 721.57
  Z"
/>
<path fill="#1e1e1e" d="
  M 1230.74 721.57
  A 509.68 509.68 0.0 0 1 721.06 1231.25
  A 509.68 509.68 0.0 0 1 211.38 721.57
  A 509.68 509.68 0.0 0 1 721.06 211.89
  A 509.68 509.68 0.0 0 1 1230.74 721.57
  Z
  M 388.25 801.00
  C 387.66 831.81 390.56 872.63 426.88 883.25
  Q 439.58 886.96 447.75 887.07
  Q 569.62 888.59 691.92 887.42
  Q 694.95 887.39 695.39 890.39
  C 705.11 957.27 750.38 1013.66 814.67 1036.22
  C 904.94 1067.89 1003.84 1021.93 1039.44 934.43
  Q 1061.72 879.68 1047.63 821.64
  C 1031.97 757.13 980.46 709.28 916.98 692.03
  Q 906.76 689.25 896.49 686.42
  A 0.78 0.74 4.9 0 1 895.93 685.79
  Q 895.74 684.34 895.77 680.75
  C 895.93 658.94 895.24 619.73 895.66 578.57
  Q 896.02 543.81 895.28 509.07
  C 894.69 481.88 887.26 457.42 860.93 445.26
  Q 846.71 438.70 831.75 438.68
  Q 796.87 438.65 761.80 437.73
  Q 759.90 437.68 759.95 435.78
  C 760.44 416.96 758.41 391.32 731.43 397.45
  C 721.86 399.63 718.14 407.59 717.02 416.50
  Q 715.80 426.19 715.15 435.95
  A 1.23 1.23 1.5 0 1 713.93 437.10
  Q 643.00 437.48 572.00 437.82
  C 567.69 437.84 566.82 435.89 566.75 431.87
  C 566.51 418.04 566.41 398.56 548.20 396.33
  C 522.65 393.20 521.50 418.90 521.90 436.52
  A 1.19 1.19 88.9 0 1 520.74 437.74
  Q 518.35 437.79 515.52 437.57
  Q 488.75 435.51 461.95 436.38
  C 433.91 437.28 403.52 446.14 392.91 474.56
  C 389.02 484.97 388.70 495.49 388.61 507.25
  Q 387.45 656.07 388.46 746.19
  Q 388.77 773.60 388.25 801.00
  Z"
/>
<path fill="#ffffff" d="
  M 426.88 883.25
  C 390.56 872.63 387.66 831.81 388.25 801.00
  Q 388.77 773.60 388.46 746.19
  Q 387.45 656.07 388.61 507.25
  C 388.70 495.49 389.02 484.97 392.91 474.56
  C 403.52 446.14 433.91 437.28 461.95 436.38
  Q 488.75 435.51 515.52 437.57
  Q 518.35 437.79 520.74 437.74
  A 1.19 1.19 88.5 0 0 521.90 436.52
  C 521.50 418.90 522.65 393.20 548.20 396.33
  C 566.41 398.56 566.51 418.04 566.75 431.87
  C 566.82 435.89 567.69 437.84 572.00 437.82
  Q 643.00 437.48 713.93 437.10
  A 1.23 1.23 1.5 0 0 715.15 435.95
  Q 715.80 426.19 717.02 416.50
  C 718.14 407.59 721.86 399.63 731.43 397.45
  C 758.41 391.32 760.44 416.96 759.95 435.78
  Q 759.90 437.68 761.80 437.73
  Q 796.87 438.65 831.75 438.68
  Q 846.71 438.70 860.93 445.26
  C 887.26 457.42 894.69 481.88 895.28 509.07
  Q 896.02 543.81 895.66 578.57
  C 895.24 619.73 895.93 658.94 895.77 680.75
  Q 895.74 684.34 895.93 685.79
  A 0.78 0.74 4.9 0 0 896.49 686.42
  Q 906.76 689.25 916.98 692.03
  C 980.46 709.28 1031.97 757.13 1047.63 821.64
  Q 1061.72 879.68 1039.44 934.43
  C 1003.84 1021.93 904.94 1067.89 814.67 1036.22
  C 750.38 1013.66 705.11 957.27 695.39 890.39
  Q 694.95 887.39 691.92 887.42
  Q 569.62 888.59 447.75 887.07
  Q 439.58 886.96 426.88 883.25
  Z
  M 792.95 571.79
  C 811.42 571.83 830.62 572.15 849.49 571.92
  Q 852.00 571.89 851.92 569.38
  Q 850.96 536.47 851.28 503.45
  Q 851.36 494.21 849.91 490.68
  C 845.62 480.26 832.30 480.87 821.50 480.54
  Q 792.50 479.66 762.61 480.57
  Q 759.66 480.66 759.72 483.61
  C 759.93 492.90 760.65 503.40 755.72 511.91
  Q 748.49 524.39 733.29 522.38
  C 715.76 520.07 716.37 494.20 715.69 481.56
  A 1.73 1.68 88.4 0 0 714.00 479.91
  L 568.56 480.49
  A 1.65 1.63 0.0 0 0 566.91 482.12
  C 566.90 490.43 567.39 503.31 563.69 510.76
  C 557.56 523.12 539.63 527.73 529.81 516.70
  C 523.13 509.18 522.02 491.89 522.04 482.08
  A 1.61 1.60 -89.3 0 0 520.48 480.47
  C 500.39 479.89 479.80 479.27 459.59 480.04
  Q 446.77 480.54 443.89 481.51
  C 434.54 484.67 431.94 494.31 431.55 503.50
  Q 430.09 537.49 431.27 571.52
  A 1.31 1.31 88.4 0 0 432.60 572.78
  C 552.68 571.20 672.85 571.58 792.95 571.79
  Z
  M 431.47 828.25
  C 431.54 837.75 437.88 844.42 447.50 844.38
  Q 570.50 843.81 692.61 844.71
  Q 694.65 844.73 695.10 842.73
  C 698.09 829.14 701.15 814.76 705.72 802.51
  C 728.72 740.80 784.84 699.42 848.68 688.30
  Q 851.24 687.86 851.24 685.25
  L 851.22 617.69
  A 1.69 1.54 -90.0 0 0 849.68 616.00
  Q 649.99 616.01 449.32 615.99
  C 444.77 615.99 437.90 615.48 432.28 615.85
  A 1.28 1.27 -1.9 0 0 431.09 617.12
  Q 430.69 724.01 431.47 828.25
  Z
  M 930.50 742.46
  Q 928.53 740.86 926.00 740.54
  C 919.67 738.11 913.91 735.62 907.10 734.32
  C 901.48 733.25 895.54 731.80 890.25 731.17
  C 841.19 725.32 792.25 746.37 763.32 786.59
  C 702.66 870.91 753.83 989.88 857.13 1002.52
  C 908.61 1008.82 959.11 985.66 987.85 942.40
  C 1034.17 872.71 1007.22 777.48 930.50 742.46
  Z"
/>
<path fill="#1e1e1e" d="
  M 792.95 571.79
  C 672.85 571.58 552.68 571.20 432.60 572.78
  A 1.31 1.31 88.4 0 1 431.27 571.52
  Q 430.09 537.49 431.55 503.50
  C 431.94 494.31 434.54 484.67 443.89 481.51
  Q 446.77 480.54 459.59 480.04
  C 479.80 479.27 500.39 479.89 520.48 480.47
  A 1.61 1.60 -89.3 0 1 522.04 482.08
  C 522.02 491.89 523.13 509.18 529.81 516.70
  C 539.63 527.73 557.56 523.12 563.69 510.76
  C 567.39 503.31 566.90 490.43 566.91 482.12
  A 1.65 1.63 0.0 0 1 568.56 480.49
  L 714.00 479.91
  A 1.73 1.68 88.4 0 1 715.69 481.56
  C 716.37 494.20 715.76 520.07 733.29 522.38
  Q 748.49 524.39 755.72 511.91
  C 760.65 503.40 759.93 492.90 759.72 483.61
  Q 759.66 480.66 762.61 480.57
  Q 792.50 479.66 821.50 480.54
  C 832.30 480.87 845.62 480.26 849.91 490.68
  Q 851.36 494.21 851.28 503.45
  Q 850.96 536.47 851.92 569.38
  Q 852.00 571.89 849.49 571.92
  C 830.62 572.15 811.42 571.83 792.95 571.79
  Z"
/>
<path fill="#1e1e1e" d="
  M 447.50 844.38
  C 437.88 844.42 431.54 837.75 431.47 828.25
  Q 430.69 724.01 431.09 617.12
  A 1.28 1.27 -1.9 0 1 432.28 615.85
  C 437.90 615.48 444.77 615.99 449.32 615.99
  Q 649.99 616.01 849.68 616.00
  A 1.69 1.54 90.0 0 1 851.22 617.69
  L 851.24 685.25
  Q 851.24 687.86 848.68 688.30
  C 784.84 699.42 728.72 740.80 705.72 802.51
  C 701.15 814.76 698.09 829.14 695.10 842.73
  Q 694.65 844.73 692.61 844.71
  Q 570.50 843.81 447.50 844.38
  Z"
/>
<path fill="#1e1e1e" d="
  M 926.00 740.54
  Q 928.02 742.03 930.50 742.46
  C 1007.22 777.48 1034.17 872.71 987.85 942.40
  C 959.11 985.66 908.61 1008.82 857.13 1002.52
  C 753.83 989.88 702.66 870.91 763.32 786.59
  C 792.25 746.37 841.19 725.32 890.25 731.17
  C 895.54 731.80 901.48 733.25 907.10 734.32
  C 913.91 735.62 919.67 738.11 926.00 740.54
  Z
  M 896.93 844.64
  A 1.35 1.35 -1.0 0 1 895.52 843.28
  Q 895.57 822.04 895.47 801.21
  C 895.41 788.88 891.15 777.83 879.25 772.52
  C 866.08 766.65 852.99 777.58 852.54 790.83
  Q 851.63 817.98 852.67 868.81
  Q 852.82 875.86 857.44 880.60
  C 863.16 886.45 873.27 887.39 881.49 887.45
  Q 905.40 887.62 929.31 887.39
  C 937.57 887.31 945.65 885.79 951.09 879.56
  C 956.51 873.36 956.84 863.52 952.81 856.54
  C 947.89 848.01 939.09 844.62 929.31 844.39
  Q 912.57 843.99 896.93 844.64
  Z"
/>
<path fill="#7e7e7e" d="
  M 926.00 740.54
  Q 928.53 740.86 930.50 742.46
  Q 928.02 742.03 926.00 740.54
  Z"
/>
<path fill="#ffffff" d="
  M 896.93 844.64
  Q 912.57 843.99 929.31 844.39
  C 939.09 844.62 947.89 848.01 952.81 856.54
  C 956.84 863.52 956.51 873.36 951.09 879.56
  C 945.65 885.79 937.57 887.31 929.31 887.39
  Q 905.40 887.62 881.49 887.45
  C 873.27 887.39 863.16 886.45 857.44 880.60
  Q 852.82 875.86 852.67 868.81
  Q 851.63 817.98 852.54 790.83
  C 852.99 777.58 866.08 766.65 879.25 772.52
  C 891.15 777.83 895.41 788.88 895.47 801.21
  Q 895.57 822.04 895.52 843.28
  A 1.35 1.35 -1.0 0 0 896.93 844.64
  Z"
/>
</svg>
